<svg width="72" height="74" viewBox="0 0 72 74" fill="none" xmlns="http://www.w3.org/2000/svg">
<path d="M38.371 0.196869C37.3241 3.28281 35.2928 6.66406 37.746 8.07812C43.7772 11.5219 50.4647 14.5625 54.3397 22.25C60.1834 33.8281 61.9975 61.375 71.6663 67.4687C64.0725 68.0625 57.6522 64.9219 54.6522 60.5625C53.5428 65.9219 49.5584 71.0312 44.8085 73.7969C45.621 69.2656 45.0897 64.5156 41.8397 59.3437C39.2616 62.9219 36.9803 68.6094 30.3085 71.1094C32.8709 66.8125 32.4491 62.8594 31.9803 57.9531C30.6053 62.1562 25.9647 65.7656 20.5897 67.1562C23.2147 64.25 24.3241 60.0469 23.8709 56.8437C21.5897 60.7344 17.0897 62.8437 13.3866 63.0469C37.3397 34.9844 20.996 17.4844 0.980324 32.6719C1.05845 24.9062 5.88658 22.25 11.4803 17.7187C11.621 15.3125 12.9803 13.1406 14.2147 10.9437C22.6053 9.38281 33.1991 4.37968 38.371 0.196869ZM25.6834 11.8969C21.6053 13.5937 18.4647 15.4219 16.871 17.4375C19.4647 16.875 23.0897 16.8906 27.8085 17.2656C25.4647 15.75 25.2303 13.875 25.6834 11.8969Z" fill="url(#paint0_linear_9_238)"/>
<defs>
<linearGradient id="paint0_linear_9_238" x1="13.1241" y1="11.4" x2="69.1241" y2="66.6" gradientUnits="userSpaceOnUse">
<stop stop-color="#DA0F13"/>
<stop offset="1" stop-color="#F86161" stop-opacity="0.75"/>
</linearGradient>
</defs>
</svg>
